<svg id="visual" viewBox="0 0 900 600" width="900" height="600" xmlns="http://www.w3.org/2000/svg" xmlns:xlink="http://www.w3.org/1999/xlink" version="1.1"><rect x="0" y="0" width="900" height="600" fill="#ffe4e4"></rect><defs><linearGradient id="grad1_0" x1="33.3%" y1="0%" x2="100%" y2="100%"><stop offset="20%" stop-color="#9e1515" stop-opacity="1"></stop><stop offset="80%" stop-color="#9e1515" stop-opacity="1"></stop></linearGradient></defs><defs><linearGradient id="grad1_1" x1="33.3%" y1="0%" x2="100%" y2="100%"><stop offset="20%" stop-color="#9e1515" stop-opacity="1"></stop><stop offset="80%" stop-color="#ffe4e4" stop-opacity="1"></stop></linearGradient></defs><defs><linearGradient id="grad2_0" x1="0%" y1="0%" x2="66.7%" y2="100%"><stop offset="20%" stop-color="#9e1515" stop-opacity="1"></stop><stop offset="80%" stop-color="#9e1515" stop-opacity="1"></stop></linearGradient></defs><defs><linearGradient id="grad2_1" x1="0%" y1="0%" x2="66.7%" y2="100%"><stop offset="20%" stop-color="#ffe4e4" stop-opacity="1"></stop><stop offset="80%" stop-color="#9e1515" stop-opacity="1"></stop></linearGradient></defs><g transform="translate(900, 0)"><path d="M0 297.5C-31.5 254.6 -62.9 211.7 -111 192.3C-159.1 172.8 -223.8 176.9 -257.6 148.7C-291.5 120.6 -294.5 60.3 -297.5 0L0 0Z" fill="#d9817b"></path><path d="M0 148.7C-15.7 127.3 -31.5 105.8 -55.5 96.1C-79.5 86.4 -111.9 88.4 -128.8 74.4C-145.7 60.3 -147.2 30.1 -148.7 0L0 0Z" fill="#9e1515"></path></g><g transform="translate(0, 600)"><path d="M0 -297.5C26.7 -246.3 53.3 -195.1 102 -176.7C150.7 -158.3 221.4 -172.7 257.6 -148.7C293.9 -124.8 295.7 -62.4 297.5 0L0 0Z" fill="#d9817b"></path><path d="M0 -148.7C13.3 -123.1 26.7 -97.5 51 -88.3C75.3 -79.1 110.7 -86.4 128.8 -74.4C146.9 -62.4 147.8 -31.2 148.7 0L0 0Z" fill="#9e1515"></path></g></svg>